<?xml version="1.0" encoding="utf-8"?>
<!-- Generator: Adobe Illustrator 15.1.0, SVG Export Plug-In . SVG Version: 6.00 Build 0)  -->
<!DOCTYPE svg PUBLIC "-//W3C//DTD SVG 1.1//EN" "http://www.w3.org/Graphics/SVG/1.1/DTD/svg11.dtd">
<svg version="1.1" xmlns="http://www.w3.org/2000/svg" xmlns:xlink="http://www.w3.org/1999/xlink" x="0px" y="0px" width="768px"
	 height="1280px" viewBox="0 0 768 1280" enable-background="new 0 0 768 1280" xml:space="preserve">
<g id="Layer_1" display="none">
	<line display="inline" fill="none" stroke="#000000" stroke-miterlimit="10" x1="153" y1="0" x2="153" y2="1280"/>
	<line display="inline" fill="none" stroke="#000000" stroke-miterlimit="10" x1="306" y1="0" x2="306" y2="1280"/>
	<line display="inline" fill="none" stroke="#000000" stroke-miterlimit="10" x1="458" y1="0" x2="458" y2="1280"/>
	<line display="inline" fill="none" stroke="#000000" stroke-miterlimit="10" x1="612" y1="0" x2="612" y2="1280"/>
</g>
<g id="Layer_2" display="none">
	<line display="inline" fill="none" stroke="#000000" stroke-miterlimit="10" x1="301.5" y1="145" x2="453.5" y2="145"/>
	<line display="inline" fill="none" stroke="#000000" stroke-miterlimit="10" x1="307.5" y1="215" x2="154.5" y2="213"/>
	<line display="inline" fill="none" stroke="#000000" stroke-miterlimit="10" x1="154.5" y1="283" x2="307.5" y2="283"/>
	<line display="inline" fill="none" stroke="#000000" stroke-miterlimit="10" x1="459.5" y1="215" x2="613.5" y2="213"/>
	<line display="inline" fill="none" stroke="#000000" stroke-miterlimit="10" x1="461.5" y1="283" x2="604.5" y2="283"/>
	<line display="inline" fill="none" stroke="#000000" stroke-miterlimit="10" x1="603" y1="213" x2="612" y2="213"/>
	<line display="inline" fill="none" stroke="#000000" stroke-miterlimit="10" x1="146.5" y1="435" x2="-6.5" y2="435"/>
	<line display="inline" fill="none" stroke="#000000" stroke-miterlimit="10" x1="146.5" y1="507" x2="2.5" y2="507"/>
	<line display="inline" fill="none" stroke="#000000" stroke-miterlimit="10" x1="299.5" y1="435" x2="453.5" y2="435"/>
	<line display="inline" fill="none" stroke="#000000" stroke-miterlimit="10" x1="451.5" y1="507" x2="301.5" y2="507"/>
	<line display="inline" fill="none" stroke="#000000" stroke-miterlimit="10" x1="605.5" y1="435" x2="761.5" y2="435"/>
	<line display="inline" fill="none" stroke="#000000" stroke-miterlimit="10" x1="605.5" y1="507" x2="761.5" y2="507"/>
	<line display="inline" fill="none" stroke="#000000" stroke-miterlimit="10" x1="147" y1="647" x2="300" y2="647"/>
	<line display="inline" fill="none" stroke="#000000" stroke-miterlimit="10" x1="147" y1="715" x2="300" y2="715"/>
	<line display="inline" fill="none" stroke="#000000" stroke-miterlimit="10" x1="452" y1="715" x2="601.5" y2="715"/>
	<line display="inline" fill="none" stroke="#000000" stroke-miterlimit="10" x1="452" y1="783" x2="606" y2="783"/>
	<line display="inline" fill="none" stroke="#000000" stroke-miterlimit="10" x1="305" y1="874" x2="152" y2="872"/>
	<line display="inline" fill="none" stroke="#000000" stroke-miterlimit="10" x1="152" y1="937" x2="307" y2="937"/>
	<line display="inline" fill="none" stroke="#000000" stroke-miterlimit="10" x1="306" y1="1079" x2="449" y2="1079"/>
	<line display="inline" fill="none" stroke="#000000" stroke-miterlimit="10" x1="306" y1="1145" x2="449" y2="1145"/>
	<line display="inline" fill="none" stroke="#000000" stroke-miterlimit="10" x1="307.5" y1="73" x2="459.5" y2="71"/>
	<line display="inline" fill="none" stroke="#000000" stroke-miterlimit="10" x1="383.5" y1="1183" x2="384" y2="1280"/>
</g>
<g id="Layer_3" display="none">
	<path display="inline" fill="none" stroke="#000000" stroke-width="5" stroke-miterlimit="10" d="M383.5,1183
		c-11.5-210-155-178-155-178s-3.5-8-4.806-260S75,667,70,531s158.5-118,158.5-220c0-146.008,149-134,149-134l-1-177"/>
	<path display="inline" fill="none" stroke="#000000" stroke-width="5" stroke-miterlimit="10" d="M377.5,177c0,0,162.5-12,159,144
		s163.5-54,147,216s-147.5,52-147,222S367,943,384,1191"/>
	<path display="inline" fill="none" stroke="#000000" stroke-width="5" stroke-miterlimit="10" d="M226.694,328.644
		C226.694,328.644,384,389,377.5,549s-139.112-86-153.806,196"/>
</g>
<g id="Layer_4">
	<line fill="none" stroke="#000000" stroke-width="5" stroke-miterlimit="10" x1="383.5" y1="0" x2="383.5" y2="179"/>
	<line fill="none" stroke="#000000" stroke-width="5" stroke-miterlimit="10" x1="383.5" y1="179" x2="223.5" y2="179"/>
	<line fill="none" stroke="#000000" stroke-width="5" stroke-miterlimit="10" x1="383.5" y1="179" x2="536.5" y2="179"/>
	<line fill="none" stroke="#000000" stroke-width="5" stroke-miterlimit="10" x1="223.5" y1="179" x2="223.5" y2="383"/>
	<line fill="none" stroke="#000000" stroke-width="5" stroke-miterlimit="10" x1="536.5" y1="179" x2="536.5" y2="383"/>
	<line fill="none" stroke="#000000" stroke-width="5" stroke-miterlimit="10" x1="223.5" y1="383" x2="383.5" y2="383"/>
	<line fill="none" stroke="#000000" stroke-width="5" stroke-miterlimit="10" x1="223.5" y1="383" x2="74.5" y2="383"/>
	<line fill="none" stroke="#000000" stroke-width="5" stroke-miterlimit="10" x1="383.5" y1="383" x2="384" y2="569"/>
	<line fill="none" stroke="#000000" stroke-width="5" stroke-miterlimit="10" x1="74.5" y1="383" x2="74.5" y2="569"/>
	<line fill="none" stroke="#000000" stroke-width="5" stroke-miterlimit="10" x1="74.5" y1="569" x2="384" y2="569"/>
	<line fill="none" stroke="#000000" stroke-width="5" stroke-miterlimit="10" x1="223.5" y1="569" x2="223.5" y2="1011"/>
	<line fill="none" stroke="#000000" stroke-width="5" stroke-miterlimit="10" x1="536.5" y1="383" x2="683.5" y2="383"/>
	<line fill="none" stroke="#000000" stroke-width="5" stroke-miterlimit="10" x1="683.5" y1="383" x2="683.5" y2="647"/>
	<line fill="none" stroke="#000000" stroke-width="5" stroke-miterlimit="10" x1="683.5" y1="647" x2="533" y2="647"/>
	<line fill="none" stroke="#000000" stroke-width="5" stroke-miterlimit="10" x1="533" y1="647" x2="536.5" y2="1011"/>
	<line fill="none" stroke="#000000" stroke-width="5" stroke-miterlimit="10" x1="536.5" y1="1011" x2="536.5" y2="1011"/>
	<line fill="none" stroke="#000000" stroke-width="5" stroke-miterlimit="10" x1="223.5" y1="1011" x2="536.5" y2="1011"/>
	<line fill="none" stroke="#000000" stroke-width="5" stroke-miterlimit="10" x1="380" y1="1011" x2="380" y2="1289"/>
</g>
</svg>
